<svg version="1.2" xmlns="http://www.w3.org/2000/svg" viewBox="0 0 512 512" width="512" height="512"><style>.a{fill:#666}</style><path class="a" d="m253.6 0h5q18.3 1.4 32 15.1 103.2 103.2 206.4 206.4 14 13.9 15 33.1v2.9c-1.2 18.3-11.3 34.2-28 41.5-8.7 3.9-17.2 4.5-26.4 4.1q-0.1 0-0.2 0-0.1 0-0.1 0.1-0.1 0.1-0.1 0.1-0.1 0.1-0.1 0.2-0.1 71.8 0.1 143.6 0 13.7-1 19.6c-4.5 25.4-26.1 43.7-52 45.3h-85.8c-7.9-1.7-13.2-7.3-13.2-15.3q0-61 0-119.7c0-14.4-11-25.6-25.5-25.6q-20.1-0.1-42.9-0.1-8 0-11.1 0.8c-8.1 2-14.7 8.1-17.6 16q-1.4 4-1.4 10.2 0.1 57.8 0 118.5c0 7.9-5.4 13.6-13.3 15.2h-85.8q-22.5-1.6-37.2-16.9c-10.2-10.6-15.6-24.1-15.6-38.8q0-76.7 0-152.7 0-0.1 0-0.2 0-0.1-0.1-0.2-0.1 0-0.2-0.1 0 0-0.1 0-4.4 0.1-9.1 0c-24.7-1-43.5-20.2-45.3-44.5v-5.5q1.5-18.1 14.2-30.9 104-103.9 207.9-207.9 12.9-12.9 31.5-14.3z"/></svg>