<svg width="67" height="72" viewBox="0 0 67 72" fill="none" xmlns="http://www.w3.org/2000/svg">
<g id="tarh1 copy 1" clip-path="url(#clip0_523_2154)">
<path id="Vector" d="M34.4357 4.14059C20.6677 2.28538 8.49503 9.32194 0.0289045 19.6899C0.0212742 19.6994 0.0124711 19.7008 0.00249299 19.6944L0.00161171 19.6935C-0.00836639 19.6864 -0.0104214 19.6776 -0.00455188 19.667C9.58587 2.70766 30.2916 -5.42348 48.1298 4.09024C52.8401 6.60273 56.7121 10.2478 59.7346 14.6535C61.9101 17.8241 63.6833 21.1918 64.9546 24.8024C67.3591 31.6305 67.6355 39.1803 65.6308 46.1161C63.4967 53.4973 58.8348 60.0709 52.7731 64.7929C44.8995 70.9266 35.0758 73.2376 25.2838 71.249C21.7186 70.5246 18.2342 69.2672 14.8305 67.4767C10.0102 64.9404 5.98231 61.3298 2.75204 56.9497C2.745 56.9397 2.74617 56.9309 2.75556 56.9232V56.9223C2.76496 56.9141 2.77405 56.9144 2.78286 56.9232C13.6534 67.5085 30.9854 72.7023 45.1117 65.1878C49.7207 62.7362 53.7161 59.1751 56.8733 54.9699C61.0508 49.4052 63.3443 43.0206 63.0292 35.9999C62.493 24.0426 56.4357 12.9679 45.4833 7.59483C41.9642 5.86859 38.2497 4.65475 34.4357 4.14059Z" fill="#C8A47A"/>
<path id="Vector_2" d="M60.5822 43.9393L60.5857 46.4465C60.5857 46.4504 60.585 46.4541 60.5835 46.4577C60.582 46.4612 60.5799 46.4644 60.5772 46.4671C60.5745 46.4698 60.5713 46.472 60.5678 46.4735C60.5643 46.4749 60.5605 46.4757 60.5567 46.4757L39.9099 46.6347C39.9022 46.6347 39.8948 46.6316 39.8894 46.6262C39.8839 46.6207 39.8809 46.6133 39.8809 46.6055V12.0606C39.881 12.0554 39.8825 12.0503 39.8852 12.0459C39.8879 12.0414 39.8917 12.0378 39.8963 12.0354C39.9009 12.0329 39.906 12.0318 39.9112 12.032C39.9164 12.0322 39.9214 12.0339 39.9258 12.0367L52.6144 20.394C52.6185 20.3967 52.6218 20.4004 52.6242 20.4047C52.6265 20.409 52.6276 20.4138 52.6276 20.4187L52.6267 43.8801C52.6267 43.8879 52.6298 43.8953 52.6352 43.9008C52.6407 43.9062 52.6481 43.9093 52.6558 43.9093L60.5531 43.9102C60.5608 43.9102 60.5682 43.9132 60.5737 43.9187C60.5791 43.9242 60.5822 43.9316 60.5822 43.9393Z" fill="#C8A47A"/>
<path id="Vector_3" d="M38.2902 12.9486V46.6332C38.2902 46.643 38.2863 46.6524 38.2794 46.6594C38.2724 46.6664 38.263 46.6703 38.2532 46.6703L34.4296 46.6676C34.4197 46.6676 34.4103 46.6637 34.4034 46.6567C34.3965 46.6498 34.3926 46.6404 34.3926 46.6305V15.1387C34.3926 15.1322 34.3944 15.1259 34.3976 15.1203C34.4009 15.1147 34.4055 15.1101 34.4111 15.1069L38.2347 12.9168C38.2403 12.9136 38.2467 12.9119 38.2531 12.9119C38.2596 12.9119 38.266 12.9135 38.2716 12.9168C38.2772 12.92 38.2819 12.9246 38.2851 12.9302C38.2884 12.9358 38.2901 12.9422 38.2902 12.9486Z" fill="#C8A47A"/>
<path id="Vector_4" d="M33.4731 15.7711V46.6392C33.4731 46.643 33.4723 46.6468 33.4708 46.6504C33.4694 46.6539 33.4672 46.6571 33.4645 46.6598C33.4618 46.6625 33.4586 46.6647 33.4551 46.6661C33.4516 46.6676 33.4478 46.6684 33.444 46.6684L29.9197 46.671C29.912 46.671 29.9046 46.6679 29.8991 46.6625C29.8937 46.657 29.8906 46.6496 29.8906 46.6419L29.8915 17.9329C29.8914 17.9277 29.8926 17.9226 29.8951 17.9181C29.8976 17.9136 29.9012 17.9099 29.9056 17.9072L33.429 15.7464C33.4334 15.7437 33.4384 15.7423 33.4436 15.7422C33.4487 15.7421 33.4537 15.7434 33.4582 15.7459C33.4627 15.7484 33.4664 15.7521 33.469 15.7565C33.4716 15.7609 33.473 15.766 33.4731 15.7711Z" fill="#C8A47A"/>
<path id="Vector_5" d="M29.3931 18.0988L29.3843 46.723C29.3843 46.7305 29.3814 46.7377 29.3761 46.743C29.3708 46.7483 29.3636 46.7513 29.3561 46.7513L27.5258 46.7442C27.5183 46.7442 27.5111 46.7413 27.5058 46.736C27.5005 46.7306 27.4976 46.7235 27.4976 46.716L27.4844 19.1819C27.4845 19.1771 27.4858 19.1723 27.4883 19.1681C27.4908 19.164 27.4943 19.1605 27.4985 19.1581L29.3509 18.0741C29.3552 18.0716 29.36 18.0703 29.365 18.0703C29.37 18.0703 29.3749 18.0717 29.3791 18.0742C29.3834 18.0767 29.387 18.0803 29.3895 18.0846C29.3919 18.0889 29.3932 18.0939 29.3931 18.0988Z" fill="#C8A47A"/>
<path id="Vector_6" d="M26.771 19.7827L26.7402 30.459C26.7402 30.4654 26.7386 30.4717 26.7353 30.4771C26.732 30.4826 26.7273 30.487 26.7217 30.49L20.8607 33.4512C20.8555 33.454 20.8496 33.4553 20.8437 33.4551C20.8377 33.4549 20.832 33.4531 20.8269 33.45C20.8219 33.4469 20.8177 33.4425 20.8148 33.4373C20.812 33.4321 20.8105 33.4263 20.8105 33.4203L20.8141 23.1716C20.8141 23.1655 20.8157 23.1594 20.8188 23.1542C20.8219 23.1489 20.8263 23.1445 20.8317 23.1415L26.719 19.7527C26.7243 19.7495 26.7303 19.7479 26.7364 19.7478C26.7425 19.7478 26.7485 19.7493 26.7538 19.7524C26.7591 19.7555 26.7635 19.7599 26.7665 19.7652C26.7695 19.7705 26.7711 19.7766 26.771 19.7827Z" fill="#C8A47A"/>
<path id="Vector_7" d="M19.8447 23.8236V46.5421C19.8447 46.5519 19.8408 46.5613 19.8339 46.5683C19.8269 46.5753 19.8175 46.5792 19.8077 46.5792L18.1288 46.5809C18.119 46.5809 18.1096 46.577 18.1026 46.5701C18.0957 46.5631 18.0918 46.5537 18.0918 46.5438L18.0927 24.7795C18.0927 24.7731 18.0945 24.7667 18.0977 24.7612C18.101 24.7556 18.1056 24.7509 18.1112 24.7477L19.7893 23.7918C19.7948 23.7886 19.8012 23.7869 19.8077 23.7869C19.8141 23.7869 19.8205 23.7885 19.8261 23.7918C19.8317 23.795 19.8364 23.7996 19.8396 23.8052C19.8429 23.8108 19.8447 23.8172 19.8447 23.8236Z" fill="#C8A47A"/>
<path id="Vector_8" d="M16.8391 25.5957L16.8849 46.6789C16.8849 46.688 16.8813 46.6968 16.8749 46.7033C16.8684 46.7097 16.8597 46.7134 16.8506 46.7134L13.88 46.7125C13.8709 46.7125 13.8622 46.7088 13.8558 46.7024C13.8493 46.6959 13.8457 46.6871 13.8457 46.678L13.969 27.238C13.969 27.2321 13.9706 27.2264 13.9735 27.2212C13.9765 27.2161 13.9806 27.2119 13.9857 27.2089L16.7872 25.5657C16.7924 25.5625 16.7984 25.5608 16.8045 25.5608C16.8106 25.5607 16.8166 25.5623 16.8219 25.5654C16.8272 25.5685 16.8316 25.5729 16.8346 25.5782C16.8377 25.5835 16.8392 25.5896 16.8391 25.5957Z" fill="#C8A47A"/>
<path id="Vector_9" d="M8.48697 30.4486L12.4823 28.0872C12.4864 28.0847 12.4911 28.0833 12.4959 28.0833C12.5007 28.0832 12.5054 28.0843 12.5096 28.0867C12.5138 28.089 12.5173 28.0924 12.5198 28.0965C12.5223 28.1006 12.5236 28.1053 12.5237 28.1102L12.5246 46.7065C12.5246 46.7137 12.5217 46.7207 12.5166 46.7258C12.5115 46.731 12.5045 46.7339 12.4973 46.7339L1.50083 46.8019C1.49359 46.8019 1.48665 46.799 1.48153 46.7939C1.47642 46.7887 1.47354 46.7818 1.47354 46.7745L1.47266 43.0729C1.47266 43.0656 1.47553 43.0587 1.48065 43.0535C1.48577 43.0484 1.49272 43.0455 1.49995 43.0455L8.44471 43.0323C8.45194 43.0323 8.45889 43.0294 8.46401 43.0242C8.46913 43.0191 8.472 43.0121 8.472 43.0049L8.47376 30.4725C8.47369 30.4677 8.47488 30.4629 8.4772 30.4588C8.47951 30.4546 8.48288 30.4511 8.48697 30.4486Z" fill="#C8A47A"/>
<path id="Vector_10" d="M26.7782 34.8109L26.8566 46.6313C26.8566 46.6413 26.8526 46.651 26.8455 46.6581C26.8384 46.6652 26.8288 46.6693 26.8187 46.6693L20.8512 46.6684C20.8412 46.6684 20.8316 46.6644 20.8245 46.6572C20.8174 46.6501 20.8134 46.6405 20.8134 46.6304L20.8125 37.5699C20.8125 37.5626 20.8146 37.5555 20.8185 37.5494C20.8224 37.5433 20.8279 37.5384 20.8345 37.5354L26.7245 34.7764C26.7303 34.7738 26.7366 34.7726 26.743 34.773C26.7493 34.7735 26.7554 34.7755 26.7608 34.7789C26.7661 34.7824 26.7705 34.7871 26.7736 34.7927C26.7766 34.7983 26.7782 34.8045 26.7782 34.8109Z" fill="#C8A47A"/>
<path id="Vector_11" d="M15.8874 52.8029L15.89 61.5728C15.89 61.5822 15.8863 61.5912 15.8797 61.5978C15.8731 61.6044 15.8641 61.6081 15.8548 61.6081L12.4529 61.6011C12.4482 61.6011 12.4436 61.6002 12.4394 61.5984C12.4351 61.5966 12.4312 61.594 12.428 61.5907C12.4247 61.5874 12.4221 61.5835 12.4203 61.5793C12.4185 61.575 12.4176 61.5704 12.4176 61.5657L12.4185 52.8038C12.4185 52.7944 12.4148 52.7855 12.4082 52.7788C12.4016 52.7722 12.3926 52.7685 12.3833 52.7685H5.46231C5.45592 52.7684 5.44968 52.7665 5.44426 52.7631C5.43884 52.7597 5.43445 52.7549 5.43155 52.7491C5.42866 52.7434 5.42737 52.737 5.42782 52.7306C5.42828 52.7242 5.43046 52.7181 5.43414 52.7128L7.67217 49.5908C7.67536 49.5862 7.67957 49.5825 7.68447 49.5799C7.68936 49.5773 7.6948 49.5758 7.70035 49.5757L39.0319 49.574C39.0412 49.574 39.0502 49.5777 39.0568 49.5843C39.0634 49.591 39.0671 49.5999 39.0671 49.6093V53.7641C39.0671 53.7735 39.0708 53.7825 39.0774 53.7891C39.084 53.7957 39.093 53.7994 39.1023 53.7994L45.8137 53.8012C45.8231 53.8012 45.832 53.7975 45.8386 53.7909C45.8452 53.7842 45.849 53.7752 45.849 53.7659L45.856 49.3708C45.856 49.3614 45.8597 49.3524 45.8663 49.3458C45.8729 49.3392 45.8819 49.3354 45.8912 49.3354H49.707C49.7163 49.3354 49.7253 49.3392 49.7319 49.3458C49.7385 49.3524 49.7422 49.3614 49.7422 49.3708L49.7431 61.571C49.7431 61.5804 49.7393 61.5894 49.7327 61.596C49.7261 61.6026 49.7172 61.6064 49.7078 61.6064L46.0655 61.602C46.0562 61.602 46.0472 61.5982 46.0406 61.5916C46.034 61.585 46.0303 61.576 46.0303 61.5666L46.0295 57.0372C46.0295 57.0279 46.0257 57.0189 46.0191 57.0123C46.0125 57.0056 46.0036 57.0019 45.9942 57.0019L39.1014 57.001C39.0921 57.001 39.0831 57.0047 39.0765 57.0114C39.0699 57.018 39.0662 57.027 39.0662 57.0364L39.0671 61.6179C39.0671 61.6272 39.0634 61.6362 39.0568 61.6428C39.0502 61.6495 39.0412 61.6532 39.0319 61.6532H35.2531C35.2438 61.6532 35.2348 61.6495 35.2282 61.6428C35.2216 61.6362 35.2179 61.6272 35.2179 61.6179V52.8029C35.2179 52.7936 35.2142 52.7846 35.2076 52.7779C35.201 52.7713 35.192 52.7676 35.1827 52.7676H15.9226C15.9132 52.7676 15.9043 52.7713 15.8977 52.7779C15.8911 52.7846 15.8874 52.7936 15.8874 52.8029Z" fill="#C8A47A"/>
<path id="Vector_12" d="M20.9879 56.5293C20.0617 56.1962 19.2077 55.3843 18.9902 54.371C18.9826 54.3345 18.9973 54.3163 19.0343 54.3163C22.9404 54.3163 26.8448 54.3127 30.7474 54.3057C31.3549 54.3048 32.0319 54.3728 32.5751 54.5946C35.6839 55.8632 35.1636 61.1302 31.7607 61.5366C31.2712 61.5949 30.7797 61.6232 30.286 61.6214C26.3001 61.6096 22.3121 61.6031 18.322 61.602C18.317 61.6019 18.3121 61.6005 18.3079 61.5979C18.3036 61.5952 18.3002 61.5915 18.2979 61.587C18.2956 61.5826 18.2946 61.5776 18.295 61.5726C18.2954 61.5676 18.2971 61.5628 18.3 61.5587L20.5627 58.3765C20.5779 58.3552 20.5981 58.3378 20.6216 58.3258C20.645 58.3139 20.671 58.3076 20.6974 58.3076C23.7888 58.3053 26.8677 58.3059 29.9339 58.3094C30.3882 58.3094 30.8152 58.1398 30.787 57.5991C30.7553 56.9878 30.1962 56.9074 29.7138 56.9092C27.9377 56.9139 26.1616 56.913 24.3855 56.9065C22.9609 56.9012 22.0708 56.9171 20.9879 56.5293Z" fill="#C8A47A"/>
<path id="Vector_13" d="M17.115 61.6664C17.4914 61.6664 17.7965 61.3602 17.7965 60.9826C17.7965 60.605 17.4914 60.2988 17.115 60.2988C16.7387 60.2988 16.4336 60.605 16.4336 60.9826C16.4336 61.3602 16.7387 61.6664 17.115 61.6664Z" fill="#C8A47A"/>
</g>
<defs>
<clipPath id="clip0_523_2154">
<rect width="67" height="72" fill="white"/>
</clipPath>
</defs>
</svg>
